<svg xmlns="http://www.w3.org/2000/svg" width="1200" height="675" viewBox="0 0 1200 675" role="img" aria-labelledby="title desc">
  <title id="title">DIVISION 2 GIRLS 2026 CROSS COUNTRY TOP 25</title>
  <desc id="desc">Podium Watch branded story cover.</desc>
  <rect width="1200" height="675" fill="#07131f"/>
  <path d="M0 510 C250 430 450 590 700 500 C900 430 1030 445 1200 390 L1200 675 L0 675 Z" fill="#0b2431"/>
  <path d="M0 570 C260 470 470 640 735 535 C945 452 1070 475 1200 425" fill="none" stroke="#00bf63" stroke-width="18" opacity="0.92"/>
  <path d="M0 618 C270 520 475 680 755 574 C965 494 1080 510 1200 466" fill="none" stroke="#ffffff" stroke-width="5" stroke-dasharray="24 28" opacity="0.72"/>
  <rect x="70" y="62" width="230" height="58" rx="29" fill="#00bf63"/>
  <text x="185" y="101" text-anchor="middle" font-family="Arial, Helvetica, sans-serif" font-size="28" font-weight="800" fill="#07131f">PODIUM WATCH</text>
  <text x="70" y="230" font-family="Arial, Helvetica, sans-serif" font-size="54" font-weight="800" fill="#00bf63">DIVISION 2</text>
  <text x="70" y="335" font-family="Arial, Helvetica, sans-serif" font-size="118" font-weight="900" fill="#ffffff">GIRLS</text>
  <text x="75" y="405" font-family="Arial, Helvetica, sans-serif" font-size="38" font-weight="700" fill="#d9e5ea">2026 CROSS COUNTRY TOP 25</text>
  <text x="1130" y="96" text-anchor="end" font-family="Arial, Helvetica, sans-serif" font-size="78" font-weight="900" fill="#ffffff" opacity="0.12">PW</text>
</svg>